<?xml version="1.0" encoding="UTF-8"?>
<svg version="1.1" xmlns="http://www.w3.org/2000/svg" width="2250" height="2250">
<path d="M0 0 C1.61049932 -0.0069808 3.22099838 -0.01402175 4.83149719 -0.02111816 C9.95147037 -0.04039555 15.07140073 -0.04529432 20.19140625 -0.046875 C21.06326065 -0.04746414 21.93511505 -0.04805328 22.83338928 -0.04866028 C48.84605737 -0.06106983 74.70564655 0.21934818 100.59881592 2.97528076 C102.77879929 3.20575679 104.95969244 3.42469839 107.14111328 3.64111328 C189.91315364 11.93505527 271.1390932 33.37712332 387.75390625 85.203125 C389.17098877 85.89124268 389.17098877 85.89124268 390.61669922 86.59326172 C404.98717592 93.57852582 418.94903936 101.15930555 432.75390625 109.203125 C433.59630859 109.69393555 434.43871094 110.18474609 435.30664062 110.69042969 C475.86823452 134.44517758 514.11750948 161.6495837 549.9050293 192.10839844 C553.43815856 195.11016276 557.01809369 198.04468968 560.62890625 200.953125 C564.33546281 203.96771948 567.76208534 207.0886852 571.078125 210.5234375 C572.89735081 212.34690393 574.80158536 214.02330779 576.75390625 215.703125 C579.95086035 218.45742391 582.92850062 221.35107206 585.88110352 224.36303711 C587.67497211 226.12556971 589.5248578 227.76263029 591.4375 229.39453125 C595.92023324 233.29359138 600.12809466 237.42957145 604.31640625 241.640625 C605.03248047 242.35283203 605.74855469 243.06503906 606.48632812 243.79882812 C610.57265408 247.89259053 614.4657532 252.09204556 618.24194336 256.47290039 C619.99392452 258.47779147 621.83881588 260.35407223 623.75390625 262.203125 C627.63417068 266.03904355 631.20285914 270.06354308 634.75390625 274.203125 C635.73365139 275.33135795 636.7141904 276.45890176 637.6953125 277.5859375 C640.51317161 280.82395537 643.32247904 284.06923173 646.12695312 287.31884766 C647.15298304 288.50715782 648.18016911 289.69447162 649.20898438 290.88037109 C656.58181965 299.38849715 663.4529036 308.22640843 670.23876953 317.20751953 C671.59594028 318.99506605 672.96488185 320.77213808 674.34375 322.54296875 C728.32152073 391.91796419 770.17282276 471.79654637 838.00390625 744.203125 C838.12866837 745.56293991 838.12866837 745.56293991 838.25595093 746.95022583 C840.37554706 770.3510253 840.99741917 793.65308519 841.00390625 817.140625 C841.00434811 817.87612328 841.00478996 818.61162155 841.00524521 819.36940765 C841.03159155 903.31000068 827.85177339 984.87690121 803.75390625 1065.203125 C832.95890625 1065.698125 832.95890625 1065.698125 862.75390625 1066.203125 C864.65140625 1071.875 866.54890625 1077.546875 868.50390625 1083.390625 C869.09397461 1085.15172607 869.68404297 1086.91282715 870.29199219 1088.72729492 C878.75390625 1114.03056129 878.75390625 1114.03056129 878.75390625 1118.203125 C880.26984375 1118.079375 880.26984375 1118.079375 881.81640625 1117.953125 C900.42205947 1118.08392045 919.40307144 1129.32003928 932.43359375 1141.76171875 C945.22917111 1155.16012726 951.22824049 1170.92219934 957.85107422 1187.89440918 C959.18926354 1191.31641765 960.5378247 1194.73432305 961.88511658 1198.15275574 C965.7570963 1207.97964499 969.60310288 1217.81642674 973.4294281 1227.66117859 C975.52707791 1233.05730324 977.63431892 1238.44944638 979.75476074 1243.83665466 C980.96264584 1246.91086333 982.16166021 1249.98847419 983.35821533 1253.06710815 C983.902204 1254.46170925 984.4496985 1255.85494934 985.00115967 1257.24661255 C989.87322692 1269.55424203 993.35020052 1281.68434995 993.19140625 1295.015625 C993.18238281 1295.9535791 993.17335938 1296.8915332 993.1640625 1297.85791016 C992.58408757 1321.55230253 981.89790857 1342.20146145 964.87109375 1358.4375 C960.57328429 1362.36494647 955.86983189 1365.44268491 950.75390625 1368.203125 C950.14571045 1368.53900635 949.53751465 1368.8748877 948.91088867 1369.22094727 C939.74883104 1374.05790794 929.96407967 1377.53731458 920.31640625 1381.265625 C918.27843526 1382.05740093 916.24067947 1382.84973095 914.203125 1383.64257812 C909.90965767 1385.31301559 905.61543565 1386.98149255 901.32080078 1388.64892578 C891.68808383 1392.39209482 882.06938982 1396.17098917 872.45001221 1399.94827271 C867.08962403 1402.05286357 861.72841569 1404.15536258 856.3671875 1406.2578125 C855.31170715 1406.67174759 854.25622681 1407.08568268 853.16876221 1407.51216125 C842.26161485 1411.7891871 831.35187415 1416.05957795 820.44140625 1420.328125 C819.49985687 1420.69649475 818.5583075 1421.0648645 817.58822632 1421.44439697 C810.03588145 1424.39906797 802.48333879 1427.35323324 794.93078613 1430.30737305 C788.30923206 1432.89738317 781.68775933 1435.48760108 775.06640625 1438.078125 C773.65468643 1438.63043793 773.65468643 1438.63043793 772.21444702 1439.19390869 C756.89123566 1445.1892584 741.57188055 1451.19440886 726.25390625 1457.203125 C704.31499661 1465.80900708 682.37050716 1474.40055347 660.42333984 1482.98535156 C654.70653677 1485.22157348 648.98995532 1487.45836151 643.2734375 1489.6953125 C642.32368042 1490.06696533 641.37392334 1490.43861816 640.39538574 1490.8215332 C637.51488898 1491.94872128 634.63439672 1493.07592085 631.75390625 1494.203125 C610.63439804 1502.46768885 610.63439804 1502.46768885 600.25723267 1506.52679443 C579.2524859 1514.74297775 558.25075645 1522.96678054 537.25390625 1531.203125 C520.98561063 1537.58461961 504.71540309 1543.96118256 488.44140625 1550.328125 C487.49985687 1550.69649475 486.5583075 1551.0648645 485.58822632 1551.44439697 C478.03588145 1554.39906797 470.48333879 1557.35323324 462.93078613 1560.30737305 C456.30923206 1562.89738317 449.68775933 1565.48760108 443.06640625 1568.078125 C441.65468643 1568.63043793 441.65468643 1568.63043793 440.21444702 1569.19390869 C424.89123566 1575.1892584 409.57188055 1581.19440886 394.25390625 1587.203125 C377.98561063 1593.58461961 361.71540309 1599.96118256 345.44140625 1606.328125 C344.49985687 1606.69649475 343.5583075 1607.0648645 342.58822632 1607.44439697 C335.03588145 1610.39906797 327.48333879 1613.35323324 319.93078613 1616.30737305 C313.30923206 1618.89738317 306.68775933 1621.48760108 300.06640625 1624.078125 C298.65468643 1624.63043793 298.65468643 1624.63043793 297.21444702 1625.19390869 C280.81776776 1631.60926275 264.42553932 1638.03593514 248.03463745 1644.46603394 C235.51194395 1649.37858985 222.98886908 1654.29014888 210.4596405 1659.1860199 C205.60665947 1661.08261037 200.7554543 1662.983452 195.90844727 1664.89526367 C187.30851136 1668.28288738 178.69995015 1671.61350951 170.0078125 1674.7578125 C151.34224777 1681.30197661 151.34224777 1681.30197661 136.5546875 1694.00390625 C116.37516299 1718.49217297 75.03324556 1730.88014928 44.75390625 1734.203125 C-1.84923934 1738.61815985 -47.29477782 1726.43487761 -83.9609375 1697.05859375 C-86.98283173 1694.53991919 -89.39671138 1691.71218513 -91.93359375 1688.703125 C-99.85479758 1680.63375477 -110.77391662 1677.57310787 -121.17236328 1673.71923828 C-125.36572695 1672.16468282 -129.53943588 1670.56137789 -133.7109375 1668.94921875 C-135.21481434 1668.36849479 -136.71872124 1667.78784867 -138.22265625 1667.20727539 C-138.9919043 1666.91031769 -139.76115234 1666.61335999 -140.55371094 1666.30740356 C-142.97987431 1665.3727968 -145.40764297 1664.44248236 -147.8359375 1663.51342773 C-162.42210268 1657.93060288 -176.96256735 1652.23390648 -191.49609375 1646.515625 C-192.68333038 1646.04857147 -193.87056702 1645.58151794 -195.09378052 1645.10031128 C-199.91696807 1643.20275258 -204.74004361 1641.3049097 -209.56291199 1639.40653992 C-221.828456 1634.57891316 -234.09919282 1629.76456528 -246.37109375 1624.953125 C-247.94606628 1624.33553818 -247.94606628 1624.33553818 -249.55285645 1623.70547485 C-265.38989456 1617.49549632 -281.23035725 1611.29429628 -297.0725708 1605.09753418 C-312.30033731 1599.14102895 -327.52410281 1593.17437328 -342.74609375 1587.203125 C-359.01437117 1580.82158409 -375.28459696 1574.44506743 -391.55859375 1568.078125 C-392.50014313 1567.70975525 -393.4416925 1567.3413855 -394.41177368 1566.96185303 C-401.0231044 1564.3753309 -407.63458113 1561.78918213 -414.24609375 1559.203125 C-421.80869646 1556.24505417 -429.37123042 1553.28680775 -436.93359375 1550.328125 C-438.34531357 1549.77581207 -438.34531357 1549.77581207 -439.78555298 1549.21234131 C-456.18658672 1542.79528352 -472.58302652 1536.36654498 -488.97845459 1529.93518066 C-509.83998141 1521.75213248 -530.70735404 1513.58408308 -551.57666016 1505.42089844 C-562.09402652 1501.30685692 -572.61069698 1497.19103662 -583.12750244 1493.07556152 C-586.00687243 1491.94880113 -588.88624692 1490.82205221 -591.765625 1489.6953125 C-593.19026062 1489.13783325 -593.19026062 1489.13783325 -594.64367676 1488.5690918 C-600.34322883 1486.33884281 -606.04293476 1484.10898756 -611.74276733 1481.87945557 C-633.82537466 1473.24165804 -655.90414939 1464.59417378 -677.97845459 1455.93518066 C-693.16934895 1449.97646913 -708.36242884 1444.02338285 -723.55859375 1438.078125 C-724.50014313 1437.70975525 -725.4416925 1437.3413855 -726.41177368 1436.96185303 C-733.0231044 1434.3753309 -739.63458113 1431.78918213 -746.24609375 1429.203125 C-785.37374476 1413.89855757 -785.37374476 1413.89855757 -804.68359375 1406.328125 C-805.72996506 1405.9179715 -806.77633636 1405.50781799 -807.85441589 1405.0852356 C-813.16481388 1403.00332413 -818.47438364 1400.91933985 -823.7824707 1398.83154297 C-833.77808714 1394.9020301 -843.77929234 1390.98940547 -853.8049469 1387.13705444 C-858.4601783 1385.34719247 -863.11175122 1383.54793015 -867.76309204 1381.74798584 C-869.96960235 1380.89714536 -872.17787244 1380.05085195 -874.38803101 1379.20953369 C-890.84983844 1372.94124702 -904.44611238 1366.61729133 -917.24609375 1354.203125 C-917.87 1353.65269531 -918.49390625 1353.10226562 -919.13671875 1352.53515625 C-932.04484049 1340.76085601 -940.29613957 1320.88217895 -941.41015625 1303.66796875 C-941.53062078 1300.84508331 -941.59071985 1298.02837976 -941.62109375 1295.203125 C-941.6351123 1294.32591797 -941.64913086 1293.44871094 -941.66357422 1292.54492188 C-941.57752691 1280.55125098 -938.30695133 1269.39930268 -933.93359375 1258.328125 C-933.48064941 1257.15757568 -933.02770508 1255.98702637 -932.56103516 1254.78100586 C-931.15616757 1251.15556601 -929.73484474 1247.53671826 -928.31207275 1243.91827393 C-927.11269293 1240.86334054 -925.91810329 1237.8065587 -924.72412109 1234.74951172 C-918.69114592 1219.303823 -912.65588985 1203.85878548 -906.53405762 1188.44805908 C-905.68459949 1186.30790928 -904.83761904 1184.16677415 -903.99328613 1182.02459717 C-902.81820093 1179.04793042 -901.631507 1176.07615865 -900.44140625 1173.10546875 C-900.10430634 1172.24603165 -899.76720642 1171.38659454 -899.41989136 1170.50111389 C-890.66473039 1148.83759331 -874.56241176 1132.75259106 -853.18359375 1123.390625 C-840.63627557 1118.47432751 -828.60383481 1117.01696437 -815.24609375 1117.203125 C-815.02783936 1116.23656982 -815.02783936 1116.23656982 -814.80517578 1115.25048828 C-812.6609197 1106.20745595 -809.84199322 1097.42574335 -806.94775391 1088.59960938 C-806.11174567 1086.04961143 -805.28197527 1083.49764507 -804.453125 1080.9453125 C-803.92353266 1079.32019658 -803.39359763 1077.69519229 -802.86328125 1076.0703125 C-802.61536835 1075.30894989 -802.36745544 1074.54758728 -802.11203003 1073.76315308 C-800.36289766 1068.43673283 -800.36289766 1068.43673283 -799.24609375 1066.203125 C-786.04609375 1065.873125 -772.84609375 1065.543125 -759.24609375 1065.203125 C-761.44265625 1057.9328125 -761.44265625 1057.9328125 -763.68359375 1050.515625 C-778.86158427 999.23230136 -788.5096372 946.8643962 -793.49609375 893.640625 C-793.57935913 892.75327667 -793.66262451 891.86592834 -793.74841309 890.95169067 C-794.29605508 885.03907068 -794.79637432 879.12400292 -795.24609375 873.203125 C-795.30124146 872.48150177 -795.35638916 871.75987854 -795.41320801 871.01638794 C-796.64111096 854.13466675 -796.49026798 837.18252109 -796.49609375 820.265625 C-796.49668289 819.48140293 -796.49727203 818.69718086 -796.49787903 817.88919449 C-796.51181582 791.55366265 -795.83628863 765.42884817 -793.24609375 739.203125 C-793.10539634 737.73112671 -792.96477006 736.25912162 -792.82421875 734.78710938 C-788.00198777 685.20566364 -778.3352232 635.97281065 -764.24609375 588.203125 C-764.04304626 587.51361755 -763.83999878 586.82411011 -763.63079834 586.1137085 C-753.65612131 552.36412059 -741.68335171 519.30524746 -727.24609375 487.203125 C-726.76462891 486.12740234 -726.28316406 485.05167969 -725.78710938 483.94335938 C-714.45959369 458.73245331 -702.16334618 434.08560714 -688.24609375 410.203125 C-687.72724609 409.30464844 -687.20839844 408.40617187 -686.67382812 407.48046875 C-667.00052527 373.42581001 -644.87814823 340.87011771 -620.24609375 310.203125 C-619.73723633 309.56810059 -619.22837891 308.93307617 -618.70410156 308.27880859 C-608.65359915 295.75692125 -598.34698785 283.494155 -587.48828125 271.6640625 C-585.47581268 269.45525553 -583.50951359 267.21619202 -581.55859375 264.953125 C-578.86169582 261.84569226 -576.01634039 258.94862174 -573.07958984 256.0690918 C-571.34917259 254.30802934 -569.74690693 252.49390644 -568.1484375 250.61328125 C-563.75784188 245.56543169 -559.04809014 240.85878833 -554.30859375 236.140625 C-553.0256543 234.85188477 -553.0256543 234.85188477 -551.71679688 233.53710938 C-547.27129112 229.09838547 -542.77159374 224.7959923 -537.98413086 220.72680664 C-536.15569887 219.1238787 -534.44826646 217.43885309 -532.74609375 215.703125 C-529.08338572 211.9912531 -525.20629946 208.59300982 -521.24609375 205.203125 C-520.19126993 204.29573136 -519.13659389 203.38816592 -518.08203125 202.48046875 C-515.07485511 199.89464521 -512.06144571 197.31620473 -509.04541016 194.74072266 C-507.88527115 193.74933114 -506.7260228 192.75689596 -505.56787109 191.76318359 C-497.3041585 184.67325142 -488.86616864 177.85456661 -480.24609375 171.203125 C-479.45106445 170.58743652 -478.65603516 169.97174805 -477.83691406 169.33740234 C-467.26546259 161.16201331 -456.63614911 153.15052033 -445.52246094 145.72558594 C-442.89584849 143.96887689 -440.2783454 142.19892464 -437.66015625 140.4296875 C-407.32244306 119.99374719 -375.9506696 101.58347961 -343.24609375 85.203125 C-342.62027405 84.88903687 -341.99445435 84.57494873 -341.34967041 84.25134277 C-274.78147929 50.87877388 -203.99189715 27.90290984 0 0 Z M-194.24609375 83.203125 C-195.23068573 83.48866241 -195.23068573 83.48866241 -196.23516846 83.77996826 C-233.08648397 94.49551667 -268.74059335 108.58444415 -303.45996094 124.89599609 C-306.17832827 126.17133247 -308.90300824 127.43226296 -311.62890625 128.69140625 C-324.47049096 134.6647898 -336.89435585 141.27947516 -349.24609375 148.203125 C-350.11202148 148.68507324 -350.97794922 149.16702148 -351.87011719 149.66357422 C-381.97834262 166.44530123 -410.7538344 185.41855356 -438.24609375 206.203125 C-438.86935547 206.67331055 -439.49261719 207.14349609 -440.13476562 207.62792969 C-446.72327163 212.61080307 -453.19288534 217.72803344 -459.5625 222.98828125 C-461.37528767 224.48442479 -463.19583932 225.97120335 -465.0234375 227.44921875 C-470.46209113 231.85048544 -475.7401285 236.37643537 -480.9140625 241.0859375 C-483.00433264 242.98363669 -485.1159549 244.85045915 -487.24609375 246.703125 C-494.13893598 252.72046509 -500.90813358 258.7939 -507.328125 265.31640625 C-509.17802352 267.13616386 -511.08574496 268.83090017 -513.05859375 270.515625 C-520.44324182 276.88270345 -527.24453646 283.89581085 -533.5703125 291.30859375 C-535.38586753 293.36114431 -537.29368911 295.28058506 -539.24609375 297.203125 C-542.46044106 300.3742853 -545.46360338 303.65895253 -548.40625 307.08203125 C-550.44118194 309.42803558 -552.52900342 311.7204895 -554.62109375 314.015625 C-558.46659557 318.28193089 -562.14340641 322.654818 -565.75390625 327.12109375 C-567.55002984 329.34231869 -569.35617911 331.55212877 -571.17578125 333.75390625 C-579.87856235 344.31731923 -588.1184238 355.19314654 -596.24609375 366.203125 C-596.79233398 366.93724609 -597.33857422 367.67136719 -597.90136719 368.42773438 C-613.75252185 389.75119536 -627.87881088 412.25736341 -641.24609375 435.203125 C-641.80828613 436.16379883 -642.37047852 437.12447266 -642.94970703 438.11425781 C-663.43839672 473.3110917 -680.51179598 510.17308447 -694.99609375 548.203125 C-695.30535797 549.01274689 -695.61462219 549.82236877 -695.93325806 550.65652466 C-696.81028785 552.96111454 -697.67840998 555.26883151 -698.54296875 557.578125 C-698.80270981 558.26116196 -699.06245087 558.94419891 -699.33006287 559.64793396 C-700.75036786 563.48232319 -701.71416747 567.14856009 -702.24609375 571.203125 C-698.35422574 572.37530087 -694.4582249 573.53242551 -690.55786133 574.67602539 C-689.23275983 575.06680816 -687.90883966 575.46162088 -686.58618164 575.8605957 C-684.68043489 576.43468489 -682.76993441 576.99291765 -680.859375 577.55078125 C-679.71251221 577.89117432 -678.56564941 578.23156738 -677.3840332 578.58227539 C-674.17294385 579.2175979 -672.33710737 579.19621373 -669.24609375 578.203125 C-667.06947069 576.70250803 -665.08355782 575.19810601 -663.05859375 573.515625 C-661.82098389 572.5147942 -660.58266639 571.514838 -659.34375 570.515625 C-658.6852002 569.98066406 -658.02665039 569.44570313 -657.34814453 568.89453125 C-654.37496325 566.50217353 -651.35929393 564.16641718 -648.34106445 561.83129883 C-646.01407735 560.02954942 -643.69639771 558.21628151 -641.37890625 556.40234375 C-639.04668306 554.58262215 -636.70828202 552.81866807 -634.30078125 551.09765625 C-626.8838137 545.69590979 -622.03493407 538.62658504 -616.73535156 531.25488281 C-610.25827284 522.33137961 -603.28108655 513.9304834 -595.74609375 505.88671875 C-593.60979952 503.59354042 -591.53906609 501.26649239 -589.49609375 498.890625 C-583.88867065 492.44408633 -577.73018426 486.75159171 -571.24609375 481.203125 C-570.3334375 480.40132812 -569.42078125 479.59953125 -568.48046875 478.7734375 C-519.20627683 435.82520096 -457.73766016 411.1129743 -393.24609375 403.203125 C-392.43640137 403.0985498 -391.62670898 402.99397461 -390.79248047 402.88623047 C-308.24398448 393.71417536 -223.79613964 420.12815911 -159.07373047 471.26123047 C-154.72842953 474.74785638 -150.55606007 478.40175633 -146.45703125 482.17578125 C-144.50626464 483.9645584 -142.5162898 485.68155619 -140.49609375 487.390625 C-131.39261027 495.34924849 -122.857183 504.02821401 -115.37109375 513.5234375 C-113.15340607 516.32000689 -110.82979625 519.00291153 -108.49609375 521.703125 C-94.14716372 538.93961061 -81.67487804 558.856801 -72.24609375 579.203125 C-70.00568747 577.03060982 -67.81352217 574.90369304 -65.84765625 572.4765625 C-47.90373944 550.34269557 -18.25834159 537.70949223 9.45727539 534.40380859 C42.72918322 531.49645149 75.41599058 539.23697143 101.67578125 560.48046875 C107.97312178 565.93448839 114.57192937 571.85109384 119.49609375 578.5859375 C119.91117188 579.11960937 120.32625 579.65328125 120.75390625 580.203125 C121.41390625 580.203125 122.07390625 580.203125 122.75390625 580.203125 C123.62789062 578.56730469 123.62789062 578.56730469 124.51953125 576.8984375 C144.18211912 540.55133218 171.60938514 505.23998633 204.75390625 480.203125 C205.71554687 479.43613281 206.6771875 478.66914062 207.66796875 477.87890625 C250.54390051 443.80236638 301.87172575 422.17506406 355.75390625 413.203125 C357.2224707 412.9553833 357.2224707 412.9553833 358.72070312 412.70263672 C390.05660173 407.69572761 424.48279398 407.88206889 455.75390625 413.203125 C456.76936523 413.36409668 457.78482422 413.52506836 458.83105469 413.69091797 C508.08658969 421.60128698 555.83128775 441.17596041 595.75390625 471.203125 C596.285 471.59677246 596.81609375 471.99041992 597.36328125 472.39599609 C610.86352123 482.41058552 623.21251151 493.48069233 635.12890625 505.328125 C636.04406006 506.23401367 636.95921387 507.13990234 637.90209961 508.07324219 C646.47587166 516.68673286 653.96475512 526.04523155 661.31640625 535.703125 C661.88174072 536.43305664 662.4470752 537.16298828 663.02954102 537.91503906 C665.38457245 540.974856 667.60972684 543.96139442 669.58984375 547.28125 C675.39422578 556.96465806 685.35532941 561.36270693 694.96240234 566.63525391 C697.56275101 568.09576109 700.0937073 569.62606355 702.6171875 571.21484375 C703.36234619 571.67882568 704.10750488 572.14280762 704.87524414 572.62084961 C706.24030582 573.47520694 707.59833322 574.34097011 708.94702148 575.22094727 C714.84468715 578.83165386 720.63635999 579.90312258 727.48535156 578.73876953 C730.28000987 578.05218064 733.00869572 577.25312731 735.75390625 576.390625 C737.16349609 575.97973633 737.16349609 575.97973633 738.6015625 575.56054688 C743.6382649 574.19841354 743.6382649 574.19841354 747.75390625 571.203125 C731.08811566 523.46615646 710.53135313 476.76605786 684.75390625 433.203125 C684.21765625 432.29159668 683.68140625 431.38006836 683.12890625 430.44091797 C663.3277326 396.91552285 640.91768474 365.05367104 616.20703125 334.9765625 C614.88233696 333.3598657 613.56757665 331.73504212 612.25390625 330.109375 C607.93650241 324.77258414 603.48480792 319.60305494 598.86328125 314.52734375 C597.00763968 312.48270165 595.18634249 310.41528351 593.37890625 308.328125 C586.73499935 300.71306697 579.92163776 293.26641477 572.70556641 286.18945312 C570.88208888 284.33358458 569.19625016 282.42233478 567.515625 280.4375 C563.86363124 276.23581671 559.91666986 272.46169997 555.81640625 268.703125 C554.40007947 267.39166337 552.98470297 266.07917467 551.5703125 264.765625 C550.90531738 264.14816406 550.24032227 263.53070313 549.55517578 262.89453125 C547.40645673 260.87686717 545.31948147 258.80565883 543.25390625 256.703125 C539.58997478 252.99171278 535.71084988 249.59749996 531.75390625 246.203125 C530.6256733 245.22337986 529.49812949 244.24284085 528.37109375 243.26171875 C524.50697137 239.89924018 520.63295495 236.5483688 516.75390625 233.203125 C516.17914551 232.70699707 515.60438477 232.21086914 515.01220703 231.69970703 C507.7476878 225.44337747 500.33689415 219.42886698 492.6796875 213.65625 C490.51271647 212.0211319 488.35237063 210.3774223 486.19140625 208.734375 C452.4794473 183.18700498 416.98653501 160.33822753 379.53662109 140.67236328 C377.12479452 139.39894932 374.72698052 138.10483389 372.3359375 136.79296875 C293.17077424 93.52682696 203.06579454 68.65573188 -194.24609375 83.203125 Z M-552.24609375 535.203125 C-554.70542288 537.77684153 -556.97286033 540.46546754 -559.24609375 543.203125 C-560.13028076 544.20536423 -561.01726469 545.2051394 -561.90625 546.203125 C-573.60453889 559.42309561 -583.63794828 573.79707133 -592.24609375 589.203125 C-592.93421143 590.42781494 -592.93421143 590.42781494 -593.63623047 591.67724609 C-628.37716342 654.1376178 -635.9524263 726.94804159 -617.08398438 795.64916992 C-607.28321799 829.97487076 -590.62504189 861.45966088 -568.24609375 889.203125 C-567.60269043 890.02006836 -567.60269043 890.02006836 -566.94628906 890.85351562 C-560.73936309 898.72982232 -553.80579507 905.8413683 -546.74609375 912.953125 C-545.44671875 914.26651855 -545.44671875 914.26651855 -544.12109375 915.60644531 C-529.26913196 930.38571301 -512.21425532 942.52198073 -494.24609375 953.203125 C-493.56240723 953.6141748 -492.8787207 954.02522461 -492.17431641 954.44873047 C-465.11441244 970.59138457 -435.07651901 980.36360998 -404.24609375 986.203125 C-402.82780273 986.47431152 -402.82780273 986.47431152 -401.38085938 986.75097656 C-373.54961886 991.79025445 -342.00954982 991.41322066 -314.24609375 986.203125 C-312.84085449 985.94571533 -312.84085449 985.94571533 -311.40722656 985.68310547 C-268.46459235 977.60157037 -227.18866239 959.97829392 -193.24609375 932.203125 C-192.47072266 931.57204834 -192.47072266 931.57204834 -191.6796875 930.92822266 C-179.07889639 920.63009454 -166.69924163 909.70662763 -156.24609375 897.203125 C-155.7970166 896.6663916 -155.34793945 896.1296582 -154.88525391 895.57666016 C-139.45379918 877.01463336 -126.59890362 856.99797336 -116.24609375 835.203125 C-115.91754395 834.52475586 -115.58899414 833.84638672 -115.25048828 833.14746094 C-98.67282705 798.73000321 -91.02759031 760.14198517 -90.99609375 722.078125 C-90.99541901 721.33701477 -90.99474426 720.59590454 -90.99404907 719.83233643 C-91.05633197 676.3612003 -101.84454402 634.53700789 -122.24609375 596.203125 C-122.80417725 595.13698975 -122.80417725 595.13698975 -123.37353516 594.04931641 C-148.35811075 546.50272291 -188.82874064 508.03146854 -236.24609375 483.203125 C-236.97473633 482.81447266 -237.70337891 482.42582031 -238.45410156 482.02539062 C-319.66884306 439.19366709 -420.27445826 445.77132252 -552.24609375 535.203125 Z M220.75390625 536.203125 C219.77405762 537.15010254 219.77405762 537.15010254 218.77441406 538.11621094 C210.58086239 546.07841527 202.65853357 554.07283027 195.75390625 563.203125 C195.33334961 563.75258789 194.91279297 564.30205078 194.47949219 564.86816406 C167.62005539 600.06928072 150.1833038 639.74353032 141.75390625 683.203125 C141.57456543 684.11271973 141.39522461 685.02231445 141.21044922 685.95947266 C135.95717012 714.1456365 136.15337211 747.09754314 141.75390625 775.203125 C141.93083008 776.13592285 142.10775391 777.0687207 142.29003906 778.02978516 C149.69599412 816.57528698 164.67531747 853.31137978 187.75390625 885.203125 C188.17736328 885.7894873 188.60082031 886.37584961 189.03710938 886.97998047 C202.878199 905.93744751 219.11088475 923.88939732 237.75390625 938.203125 C239.25630859 939.39615234 239.25630859 939.39615234 240.7890625 940.61328125 C279.94531692 971.5558619 326.44299939 989.68318629 375.75390625 996.203125 C376.49995117 996.3077002 377.24599609 996.41227539 378.01464844 996.52001953 C387.07991861 997.62308571 396.26125777 997.44708872 405.37890625 997.453125 C406.7510025 997.45413712 406.7510025 997.45413712 408.15081787 997.45516968 C422.54330877 997.43832549 436.57300072 996.85851368 450.75390625 994.203125 C451.70813477 994.02620117 452.66236328 993.84927734 453.64550781 993.66699219 C501.70258047 984.48683875 547.32878003 963.59546394 583.49609375 930.27734375 C585.52554088 928.41292087 587.59424781 926.61537946 589.69140625 924.828125 C598.61051429 917.02390547 606.42751813 908.50391263 613.75390625 899.203125 C614.62498787 898.13304343 615.4974369 897.06407384 616.37109375 895.99609375 C650.85746014 853.48835367 673.65906109 796.69444695 673.95703125 741.6640625 C673.96409088 740.78867828 673.97115051 739.91329407 673.97842407 739.01138306 C674.16423022 711.4769989 674.16423022 711.4769989 670.75390625 684.203125 C670.55522949 683.14351562 670.35655273 682.08390625 670.15185547 680.9921875 C665.58817425 657.30890398 658.3795551 634.85755235 647.75390625 613.203125 C647.12162109 611.90979248 647.12162109 611.90979248 646.4765625 610.59033203 C637.72308893 592.87234046 627.22624313 576.53132189 614.75390625 561.203125 C614.32207031 560.6683252 613.89023438 560.13352539 613.4453125 559.58251953 C601.70827902 545.15362293 588.55531815 531.49835537 573.75390625 520.203125 C572.80128906 519.43355469 571.84867188 518.66398438 570.8671875 517.87109375 C493.01912581 455.84660294 384.93046782 445.47778586 220.75390625 536.203125 Z M-25.24609375 606.203125 C-25.96539063 606.91339844 -26.6846875 607.62367188 -27.42578125 608.35546875 C-36.34402185 617.66072734 -42.37252994 630.36367917 -42.43359375 643.390625 C-42.34078125 645.2778125 -42.34078125 645.2778125 -42.24609375 647.203125 C-43.89609375 647.203125 -45.54609375 647.203125 -47.24609375 647.203125 C-47.10510254 647.96230225 -46.96411133 648.72147949 -46.81884766 649.50366211 C-41.5292972 678.13265 -41.5292972 678.13265 -40.24609375 692.203125 C-40.07980469 693.85634766 -40.07980469 693.85634766 -39.91015625 695.54296875 C-35.00707933 753.38602481 -46.50399442 812.28744322 -72.24609375 864.203125 C-72.67470703 865.08726074 -73.10332031 865.97139648 -73.54492188 866.88232422 C-83.15625253 886.63691031 -95.31610481 905.21363766 -109.24609375 922.203125 C-109.67164551 922.72342285 -110.09719727 923.2437207 -110.53564453 923.77978516 C-140.09694313 959.76417305 -176.17901036 989.29762709 -218.39306641 1009.31933594 C-220.17961278 1010.17141734 -221.95340879 1011.0500759 -223.7265625 1011.9296875 C-295.883766 1047.00721817 -382.31068201 1050.47706434 -458.24609375 1026.203125 C-459.07367187 1025.93918945 -459.90125 1025.67525391 -460.75390625 1025.40332031 C-504.42575878 1011.25729068 -543.48861823 987.08009737 -577.24609375 956.203125 C-578.26106752 955.29224258 -579.27672001 954.382116 -580.29296875 953.47265625 C-585.31078082 948.96154405 -590.1675808 944.43699216 -594.50390625 939.25 C-595.74923047 937.78688365 -597.04175568 936.36342274 -598.36328125 934.96875 C-653.23378874 877.03988635 -680.41796368 793.99055058 -679.24609375 715.203125 C-679.09546097 710.38491617 -678.85037662 705.57725462 -678.55859375 700.765625 C-678.51929749 700.11080139 -678.48000122 699.45597778 -678.43951416 698.78131104 C-677.55885067 684.6732773 -675.31560229 670.9105437 -672.67333984 657.03271484 C-671.83402671 651.9829923 -671.83402671 651.9829923 -673.28417969 647.23022461 C-673.76145508 646.61155518 -674.23873047 645.99288574 -674.73046875 645.35546875 C-675.51550781 644.32389648 -675.51550781 644.32389648 -676.31640625 643.27148438 C-676.87070312 642.56830078 -677.425 641.86511719 -677.99609375 641.140625 C-678.53492188 640.43357422 -679.07375 639.72652344 -679.62890625 638.99804688 C-684.15437488 633.12045652 -687.28936779 629.1037919 -694.69140625 627.0625 C-696.55345703 626.54042969 -696.55345703 626.54042969 -698.453125 626.0078125 C-699.75909885 625.65619156 -701.06508862 625.30462973 -702.37109375 624.953125 C-703.68522022 624.58710013 -704.99902657 624.21992391 -706.3125 623.8515625 C-712.19317896 621.98947116 -712.19317896 621.98947116 -718.24609375 621.203125 C-733.34741697 678.53255104 -743.28651494 737.92951635 -743.44921875 797.3359375 C-743.45624097 798.93198168 -743.46332779 800.52802558 -743.47047424 802.12406921 C-743.48986095 807.19209196 -743.49490794 812.2600689 -743.49609375 817.328125 C-743.49653561 818.19155392 -743.49697746 819.05498283 -743.49743271 819.94457626 C-743.50408415 844.72536673 -743.37843377 869.36038483 -740.49932861 894.00512695 C-740.22985708 896.3440541 -739.97661607 898.6843629 -739.72607422 901.02539062 C-733.51349606 958.66073637 -719.97807695 1014.11184632 -702.24609375 1069.203125 C-701.57229675 1069.26274918 -700.89849976 1069.32237335 -700.20428467 1069.38380432 C-646.84871831 1074.12286719 -593.92365779 1080.28519667 -541.24609375 1090.203125 C-540.35651978 1090.36965576 -539.4669458 1090.53618652 -538.55041504 1090.70776367 C-447.12360163 1107.8672689 -356.18423902 1134.57211075 -166.54785156 1221.86865234 C-163.77189544 1223.47804736 -160.96794964 1225.03226936 -158.15869141 1226.58251953 C-101.33660324 1258.01817566 -48.01442581 1297.27398984 1.04492188 1339.73242188 C2.74652613 1341.19677388 4.45906021 1342.64716295 6.17578125 1344.09375 C16.00504212 1352.39602718 25.37005577 1361.15848187 34.67773438 1370.03857422 C36.46818455 1371.74547628 38.26662254 1373.44357628 40.06640625 1375.140625 C40.59951416 1375.65496094 41.13262207 1376.16929687 41.68188477 1376.69921875 C44.68297911 1379.65007824 44.68297911 1379.65007824 48.75390625 1380.203125 C50.8488753 1378.54074805 50.8488753 1378.54074805 53.0065918 1376.27514648 C53.86145676 1375.41682724 54.71632172 1374.558508 55.59709167 1373.67417908 C56.51895767 1372.73369217 57.44082367 1371.79320526 58.390625 1370.82421875 C59.35293109 1369.85377083 60.31598087 1368.88405985 61.27973938 1367.91505432 C63.82309858 1365.35454525 66.35778481 1362.78562683 68.89031982 1360.2144165 C72.923509 1356.12218879 76.96909278 1352.04223062 81.01569557 1347.963274 C82.41863042 1346.54655231 83.81736447 1345.1256746 85.21598816 1343.70469666 C89.69701739 1339.17344079 94.22280488 1334.78087851 99.07116699 1330.64280701 C101.63990907 1328.44509768 104.0927505 1326.13225749 106.56640625 1323.828125 C111.16569157 1319.57827203 115.90478565 1315.56735997 120.78515625 1311.640625 C124.2767327 1308.77385697 127.66900172 1305.80519182 131.06640625 1302.828125 C137.48917318 1297.22278641 144.08107199 1291.89720774 150.83056641 1286.69238281 C152.94191132 1285.05755113 155.04176656 1283.408641 157.140625 1281.7578125 C165.59517628 1275.11971093 174.12438182 1268.64729932 182.93066406 1262.48339844 C184.91697337 1261.08861991 186.89447107 1259.68190716 188.87109375 1258.2734375 C197.43600855 1252.17930235 206.0713069 1246.21281551 214.86035156 1240.44628906 C216.12693298 1239.61474799 217.39190095 1238.78074433 218.65527344 1237.94433594 C244.0296322 1221.15191578 270.44190842 1205.86587986 297.484375 1191.93359375 C300.5272977 1190.36508244 303.55677489 1188.78182273 306.5546875 1187.12890625 C368.23715262 1153.19287872 437.24633926 1131.05462399 504.75390625 1112.203125 C505.66160767 1111.94853516 506.56930908 1111.69394531 507.5045166 1111.43164062 C575.39877996 1092.39431423 644.52772291 1079.55381746 714.68511963 1072.52084351 C716.47448321 1072.33991356 718.26336894 1072.15418322 720.05169678 1071.96328735 C724.35521986 1071.50917084 728.63476747 1071.14141814 732.95800781 1070.93994141 C740.80499934 1070.82213409 740.80499934 1070.82213409 747.59057617 1067.59790039 C748.76067148 1065.14090115 749.23966838 1062.87642928 749.75390625 1060.203125 C750.49323682 1057.90931331 751.24858884 1055.62063382 752.015625 1053.3359375 C752.84363686 1050.67246131 753.64264276 1048.00049908 754.44140625 1045.328125 C754.76330429 1044.25800171 754.76330429 1044.25800171 755.09170532 1043.16625977 C768.88863431 997.18115067 778.59962401 950.41264933 784.00390625 902.703125 C784.11960464 901.70023941 784.11960464 901.70023941 784.23764038 900.67709351 C787.24600663 874.23207476 788.13456022 847.81664213 788.07196426 821.22876358 C788.06630986 818.78649072 788.06349821 816.34422485 788.06088257 813.90194702 C788.02301247 789.56010735 787.53041102 765.40928737 784.75390625 741.203125 C784.66433655 740.40310059 784.57476685 739.60307617 784.48248291 738.77880859 C780.15287299 700.15202573 773.48462344 661.85140688 763.75390625 624.203125 C759.64277785 622.52703417 755.89977393 623.90698433 751.8125 625.01171875 C751.04841324 625.21612076 750.28432648 625.42052277 749.49708557 625.63111877 C747.8842693 626.06858292 746.27303565 626.51191819 744.66333008 626.96069336 C742.20394859 627.63717508 739.73538377 628.26679749 737.26367188 628.89648438 C735.69582748 629.3278787 734.12873968 629.76203415 732.5625 630.19921875 C731.4561747 630.4700956 731.4561747 630.4700956 730.32749939 630.7464447 C727.40181975 631.60948709 725.23166438 632.39793474 723.63591003 635.08734131 C722.86778604 637.11314451 722.27516331 639.10195313 721.75390625 641.203125 C718.97612847 648.98090278 718.97612847 648.98090278 716.75390625 651.203125 C716.8974089 653.2903202 716.8974089 653.2903202 717.546875 655.65625 C717.76375977 656.57486816 717.98064453 657.49348633 718.20410156 658.43994141 C718.44741211 659.43429199 718.69072266 660.42864258 718.94140625 661.453125 C720.81343998 669.5461688 722.40750537 677.5924537 723.50390625 685.828125 C723.67635864 687.10284668 723.67635864 687.10284668 723.85229492 688.40332031 C725.57397747 701.84933618 725.99474308 715.22758104 726.00390625 728.765625 C726.00491837 730.11830978 726.00491837 730.11830978 726.00595093 731.49832153 C725.9179621 805.9672926 699.74742458 876.63271792 652.75390625 934.203125 C652.09068359 935.02296875 652.09068359 935.02296875 651.4140625 935.859375 C639.38121553 950.64756954 625.86127038 964.55512831 610.75390625 976.203125 C609.66496643 977.10053594 608.57923814 978.00185265 607.49609375 978.90625 C543.06479669 1032.35029665 457.81409567 1055.53365396 375.02246094 1048.37841797 C311.94296953 1041.98789955 250.07887248 1017.69719375 201.75390625 976.203125 C200.74199219 975.37425781 199.73007813 974.54539062 198.6875 973.69140625 C184.1055698 961.65481076 170.28644953 948.20426846 158.75390625 933.203125 C157.86989445 932.13858512 156.98156198 931.07762417 156.08984375 930.01953125 C141.60884766 912.69092989 130.03300762 893.25760455 119.75390625 873.203125 C119.37685547 872.46964844 118.99980469 871.73617188 118.61132812 870.98046875 C101.57771336 837.41515052 91.96148745 800.46715297 87.75390625 763.203125 C87.65819336 762.43629395 87.56248047 761.66946289 87.46386719 760.87939453 C86.35889506 750.86533706 86.51091307 740.76492437 86.50390625 730.703125 C86.50289917 729.70168457 86.50189209 728.70024414 86.50085449 727.66845703 C86.51625353 704.99744741 88.67416577 683.23466607 93.43432617 661.04296875 C93.83947476 659.02173354 93.83947476 659.02173354 93.75390625 656.203125 C92.43390625 656.203125 91.11390625 656.203125 89.75390625 656.203125 C90.08390625 655.543125 90.41390625 654.883125 90.75390625 654.203125 C91.82126144 638.15174498 88.6433509 624.3088624 78.54296875 611.37109375 C66.717224 597.9107324 51.08553239 587.27377271 32.64233398 586.06469727 C10.39962468 585.15560682 -9.25541899 589.73885883 -25.24609375 606.203125 Z M-760.24609375 1119.203125 C-760.89519529 1120.78512131 -761.54024069 1122.36878224 -762.18359375 1123.953125 C-762.54324219 1124.83484375 -762.90289063 1125.7165625 -763.2734375 1126.625 C-764.10142117 1128.8196555 -764.70269619 1130.92804415 -765.24609375 1133.203125 C-748.7801137 1140.05942012 -732.19522678 1146.58671183 -715.55859375 1153.015625 C-697.37028079 1160.04452376 -679.2040909 1167.12688511 -661.05859375 1174.265625 C-658.67789934 1175.20207267 -656.29720273 1176.13851474 -653.91650391 1177.07495117 C-652.7459848 1177.53537308 -651.5754657 1177.99579498 -650.36947632 1178.47016907 C-649.2072757 1178.92731796 -648.04507507 1179.38446686 -646.84765625 1179.85546875 C-645.11728622 1180.53617683 -645.11728622 1180.53617683 -643.35195923 1181.2306366 C-632.21769165 1185.60974166 -621.07653836 1189.97115563 -609.93359375 1194.328125 C-593.86751102 1200.61067749 -577.80538422 1206.90323016 -561.74609375 1213.203125 C-545.4778345 1219.58471217 -529.20759049 1225.96118259 -512.93359375 1232.328125 C-511.99204437 1232.69649475 -511.050495 1233.0648645 -510.08041382 1233.44439697 C-503.4690831 1236.0309191 -496.85760637 1238.61706787 -490.24609375 1241.203125 C-482.68349104 1244.16119583 -475.12095708 1247.11944225 -467.55859375 1250.078125 C-466.6174472 1250.44633362 -465.67630066 1250.81454224 -464.70663452 1251.19390869 C-448.30560078 1257.61096648 -431.90916098 1264.03970502 -415.51373291 1270.47106934 C-400.32283855 1276.42978087 -385.12975866 1282.38286715 -369.93359375 1288.328125 C-368.99204437 1288.69649475 -368.050495 1289.0648645 -367.08041382 1289.44439697 C-360.4690831 1292.0309191 -353.85760637 1294.61706787 -347.24609375 1297.203125 C-339.68349104 1300.16119583 -332.12095708 1303.11944225 -324.55859375 1306.078125 C-323.6174472 1306.44633362 -322.67630066 1306.81454224 -321.70663452 1307.19390869 C-305.30560078 1313.61096648 -288.90916098 1320.03970502 -272.51373291 1326.47106934 C-257.32283855 1332.42978087 -242.12975866 1338.38286715 -226.93359375 1344.328125 C-225.99204437 1344.69649475 -225.050495 1345.0648645 -224.08041382 1345.44439697 C-217.4690831 1348.0309191 -210.85760637 1350.61706787 -204.24609375 1353.203125 C-196.68349104 1356.16119583 -189.12095708 1359.11944225 -181.55859375 1362.078125 C-180.6174472 1362.44633362 -179.67630066 1362.81454224 -178.70663452 1363.19390869 C-162.30560078 1369.61096648 -145.90916098 1376.03970502 -129.51373291 1382.47106934 C-114.32283843 1388.42978092 -99.12971595 1394.38275779 -83.93359375 1400.328125 C-82.99636475 1400.69483307 -82.05913574 1401.06154114 -81.09350586 1401.43936157 C-71.5426062 1405.17626318 -61.99126919 1408.91204351 -52.43913269 1412.64578247 C-27.35589746 1422.45068328 -2.28878569 1432.29510296 22.75390625 1442.203125 C25.09179635 1438.69628985 25.25987926 1437.33102148 24.75390625 1433.203125 C23.07794215 1430.68822703 23.07794215 1430.68822703 20.66015625 1428.48828125 C19.79390625 1427.63685547 18.92765625 1426.78542969 18.03515625 1425.90820312 C17.11734375 1425.03615234 16.19953125 1424.16410156 15.25390625 1423.265625 C14.36703125 1422.39744141 13.48015625 1421.52925781 12.56640625 1420.63476562 C7.99179257 1416.18460835 3.33069878 1411.86607701 -1.5234375 1407.72241211 C-3.34267659 1406.1179443 -5.04748782 1404.43418191 -6.74609375 1402.703125 C-9.71344698 1399.68898918 -12.81954667 1396.90395167 -16.0234375 1394.14453125 C-18.57586258 1391.91508439 -21.06496889 1389.62311118 -23.55859375 1387.328125 C-28.02132207 1383.25772444 -32.60867375 1379.40135591 -37.30859375 1375.609375 C-40.60964045 1372.90532611 -43.83344492 1370.12168023 -47.05859375 1367.328125 C-53.32591129 1361.92176367 -59.76068426 1356.77198587 -66.30664062 1351.70849609 C-68.42343627 1350.0654747 -70.53048262 1348.41043992 -72.63671875 1346.75390625 C-81.10734422 1340.104542 -89.6528177 1333.62269213 -98.47558594 1327.44824219 C-100.3055509 1326.1613115 -102.1242706 1324.85966115 -103.94140625 1323.5546875 C-140.4029075 1297.45032676 -178.65535708 1274.23885197 -218.24609375 1253.203125 C-219.2825 1252.64802246 -220.31890625 1252.09291992 -221.38671875 1251.52099609 C-239.35574378 1241.91468957 -257.66710691 1233.29447065 -276.29681396 1225.06512451 C-278.14663675 1224.24710631 -279.9945182 1223.42470222 -281.84228516 1222.60205078 C-359.65901342 1188.05013592 -443.02017868 1163.66685937 -526.24609375 1146.203125 C-527.12273682 1146.01834595 -527.99937988 1145.83356689 -528.90258789 1145.64318848 C-604.11288559 1129.82679531 -683.19628188 1118.00130818 -760.24609375 1119.203125 Z M484.75390625 1172.203125 C483.99080139 1172.42935547 483.22769653 1172.65558594 482.44146729 1172.88867188 C419.33722522 1191.62553538 357.47700736 1216.87348423 300.37158203 1249.71289062 C297.26011448 1251.48423906 294.11915736 1253.19622878 290.97241211 1254.90380859 C265.18871943 1268.94746863 240.19443594 1285.50395243 216.53125 1302.89697266 C214.42249611 1304.44667504 212.30664327 1305.98650299 210.19140625 1307.52734375 C192.73242271 1320.2822172 175.9185327 1333.73442536 159.45849609 1347.75292969 C157.73271296 1349.22115539 156.00316353 1350.68486033 154.2734375 1352.1484375 C146.90411813 1358.4026827 139.72868255 1364.82344087 132.671875 1371.4284668 C131.21526016 1372.77624343 129.74698715 1374.11143342 128.2734375 1375.44067383 C120.00455503 1382.92415309 112.06165159 1390.70918051 104.17675781 1398.5949707 C101.97088449 1400.79861337 99.75706456 1402.99407552 97.54296875 1405.18945312 C96.13883647 1406.59065854 94.73517228 1407.99233322 93.33203125 1409.39453125 C92.66971497 1410.04966202 92.00739868 1410.70479279 91.32501221 1411.379776 C90.72308044 1411.98478439 90.12114868 1412.58979279 89.50097656 1413.21313477 C88.96869446 1413.74399185 88.43641235 1414.27484894 87.88800049 1414.8217926 C86.54239011 1416.16287834 86.54239011 1416.16287834 86.75390625 1418.203125 C91.87729842 1417.57407763 96.21164698 1416.01258594 100.953125 1414.08984375 C101.75948395 1413.7686557 102.5658429 1413.44746765 103.39663696 1413.11654663 C105.15337039 1412.41607737 106.90902752 1411.71290414 108.66372681 1411.00735474 C112.48979917 1409.46913232 116.32117165 1407.94431485 120.15220642 1406.41850281 C122.19484184 1405.60481079 124.23720501 1404.79043505 126.27931213 1403.97541809 C137.85596013 1399.35688552 149.46060684 1394.81028543 161.06640625 1390.265625 C163.22837532 1389.41843295 165.39032186 1388.5711834 167.55224609 1387.72387695 C173.95235764 1385.21583087 180.35302905 1382.70921629 186.75390625 1380.203125 C188.25268311 1379.61630951 188.25268311 1379.61630951 189.78173828 1379.01763916 C201.27282975 1374.51875509 212.76480987 1370.02214413 224.25727844 1365.52677917 C230.91649536 1362.9219706 237.57550869 1360.31664224 244.234375 1357.7109375 C245.18413208 1357.33928467 246.13388916 1356.96763184 247.11242676 1356.5847168 C249.99292352 1355.45752872 252.87341578 1354.33032915 255.75390625 1353.203125 C276.87341446 1344.93856115 276.87341446 1344.93856115 287.25057983 1340.87945557 C308.2553266 1332.66327225 329.25705605 1324.43946946 350.25390625 1316.203125 C366.52220187 1309.82163039 382.79240941 1303.44506744 399.06640625 1297.078125 C400.00795563 1296.70975525 400.949505 1296.3413855 401.91958618 1295.96185303 C409.47193105 1293.00718203 417.02447371 1290.05301676 424.57702637 1287.09887695 C431.19858044 1284.50886683 437.82005317 1281.91864892 444.44140625 1279.328125 C445.85312607 1278.77581207 445.85312607 1278.77581207 447.29336548 1278.21234131 C462.61657684 1272.2169916 477.93593195 1266.21184114 493.25390625 1260.203125 C509.52220187 1253.82163039 525.79240941 1247.44506744 542.06640625 1241.078125 C543.00795563 1240.70975525 543.949505 1240.3413855 544.91958618 1239.96185303 C552.47193105 1237.00718203 560.02447371 1234.05301676 567.57702637 1231.09887695 C574.19858044 1228.50886683 580.82005317 1225.91864892 587.44140625 1223.328125 C588.85312607 1222.77581207 588.85312607 1222.77581207 590.29336548 1222.21234131 C605.61657684 1216.2169916 620.93593195 1210.21184114 636.25390625 1204.203125 C652.52220187 1197.82163039 668.79240941 1191.44506744 685.06640625 1185.078125 C686.00795563 1184.70975525 686.949505 1184.3413855 687.91958618 1183.96185303 C695.47193105 1181.00718203 703.02447371 1178.05301676 710.57702637 1175.09887695 C721.9592659 1170.64673243 733.34114473 1166.19366976 744.72206116 1161.73814392 C749.94139752 1159.69494443 755.16110721 1157.65270501 760.38134766 1155.61181641 C766.06800844 1153.38857233 771.75400153 1151.16362781 777.43960571 1148.93768311 C779.60325177 1148.09093592 781.76712123 1147.24475928 783.9312439 1146.39923096 C798.26115486 1140.79997788 812.53274132 1135.07330174 826.75390625 1129.203125 C826.44592299 1127.72301129 826.13238825 1126.24405175 825.81640625 1124.765625 C825.64238281 1123.94191406 825.46835938 1123.11820313 825.2890625 1122.26953125 C824.94637631 1120.22651296 824.94637631 1120.22651296 823.75390625 1119.203125 C819.03230527 1118.93307284 814.29506191 1119.00849916 809.56640625 1119.015625 C808.46758118 1119.01653137 808.46758118 1119.01653137 807.34655762 1119.01745605 C717.09035426 1119.21684742 625.70303366 1133.44553163 484.75390625 1172.203125 Z " fill="#FFFFFF" transform="translate(1099.24609375,244.796875)"/>
</svg>
